# xmcd
#
# Track frame offsets: 
#        150
#        15182
#        33810
#        49768
#        62470
#        82569
#        101910
#        114515
#        128678
#        148885
#        160124
#        173481
#        184371
#        203141
#        230839
#        239970
#        258876
#        272549
#
# Disc length: 3919 seconds
#
# Revision: 1
# Processed by: cddbd v1.5.2PL0 Copyright (c) Steve Scherf et al.
# Submitted via: ExactAudioCopy v1.0b3
#
DISCID=eb0f4d12
DTITLE=The Dave Hydie Trio - South Bay Shaker
DYEAR=1998
DGENRE=Blues
TTITLE0=Chump Change
TTITLE1=E.J. Shuffle
TTITLE2=Irene
TTITLE3=Violet's Swing
TTITLE4=Racist Blues
TTITLE5=Late Night Lounge Lizard
TTITLE6=Too Many Drivers
TTITLE7=South Bay Shaker
TTITLE8=Good Mornin' Little Shool Girl
TTITLE9=Hydie's Ride
TTITLE10=Mr. Bumble Bee
TTITLE11=Little Mo
TTITLE12=Money Shaker
TTITLE13=Dad's Blues
TTITLE14=Prodigal Son
TTITLE15=Let's Go Fishin
TTITLE16=Broom Dustin'
TTITLE17=Baby, Please Don't
EXTD=
EXTT0=
EXTT1=
EXTT2=
EXTT3=
EXTT4=
EXTT5=
EXTT6=
EXTT7=
EXTT8=
EXTT9=
EXTT10=
EXTT11=
EXTT12=
EXTT13=
EXTT14=
EXTT15=
EXTT16=
EXTT17=
PLAYORDER=
